HIERARCHY
ROOT Hips
{
	OFFSET 0.00000 0.00000 0.00000
	CHANNELS 6 Xposition Yposition Zposition Zrotation Yrotation Xrotation 
	JOINT LHipJoint
	{
		OFFSET 0 0 0
		CHANNELS 3 Zrotation Yrotation Xrotation
		JOINT LeftHip
		{
			OFFSET 1.52977 -1.71332 0.88991
			CHANNELS 3 Zrotation Yrotation Xrotation
			JOINT LeftKnee
			{
				OFFSET 2.23949 -6.15296 0.00000
				CHANNELS 3 Zrotation Yrotation Xrotation
				JOINT LeftAnkle
				{
					OFFSET 2.68396 -7.37412 0.00000
					CHANNELS 3 Zrotation Yrotation Xrotation
					JOINT LeftToe
					{
						OFFSET 0.20538 -0.56428 2.52710
						CHANNELS 3 Zrotation Yrotation Xrotation
						End Site
						{
							OFFSET 0.00000 -0.00000 1.29919
						}
					}
				}
			}
		}
	}
	JOINT RHipJoint
	{
		OFFSET 0 0 0
		CHANNELS 3 Zrotation Yrotation Xrotation
		JOINT RightHip
		{
			OFFSET -1.45689 -1.71333 0.88991
			CHANNELS 3 Zrotation Yrotation Xrotation
			JOINT RightKnee
			{
				OFFSET -2.36700 -6.50329 0.00000
				CHANNELS 3 Zrotation Yrotation Xrotation
				JOINT RightAnkle
				{
					OFFSET -2.69814 -7.41308 0.00000
					CHANNELS 3 Zrotation Yrotation Xrotation
					JOINT RightToe
					{
						OFFSET -0.18734 -0.51471 2.37479
						CHANNELS 3 Zrotation Yrotation Xrotation
						End Site
						{
							OFFSET -0.00000 -0.00000 1.22113
						}
					}
				}
			}
		}
	}
	JOINT lowerback
	{
		OFFSET 0 0 0
		CHANNELS 3 Zrotation Yrotation Xrotation
		JOINT Chest
		{
			OFFSET 0.04294 2.14638 -0.31163
			CHANNELS 3 Zrotation Yrotation Xrotation
			JOINT Chest2
			{
				OFFSET -0.00400 2.17216 0.01486
				CHANNELS 3 Zrotation Yrotation Xrotation
				JOINT lowerneck
				{
					OFFSET 0 0 0
					CHANNELS 3 Zrotation Yrotation Xrotation
					JOINT Neck
					{
						OFFSET 0.03869 1.76598 0.14916
						CHANNELS 3 Zrotation Yrotation Xrotation
						JOINT Head
						{
							OFFSET -0.00760 1.75513 -0.18948
							CHANNELS 3 Zrotation Yrotation Xrotation
							End Site
							{
								OFFSET -0.00601 1.82444 -0.08310
							}
						}
					}
				}
				JOINT LeftCollar
				{
					OFFSET 0 0 0
					CHANNELS 3 Zrotation Yrotation Xrotation
					JOINT LeftShoulder
					{
						OFFSET 3.73696 0.92058 0.01733
CHANNELS 3 Zrotation Xrotation Yrotation
						JOINT LeftElbow
						{
OFFSET 0 -5.227710 0.000000
CHANNELS 3 Zrotation Xrotation Yrotation
							JOINT LeftWrist
							{
OFFSET 0 -3.452510 0.000000
CHANNELS 3 Zrotation Xrotation Yrotation
								JOINT lhand
								{
									OFFSET 0 0 0
CHANNELS 3 Zrotation Xrotation Yrotation
									JOINT LFingers
									{
OFFSET 0 -0.552120 0.000000
CHANNELS 3 Zrotation Xrotation Yrotation
										End Site
										{
OFFSET 0 -0.445130 0.000000
										}
									}
								}
								JOINT LThumb
								{
OFFSET 0 0.000000 0.000000
CHANNELS 3 Zrotation Xrotation Yrotation
									End Site
									{
OFFSET 0 -0.451930 0.451930
									}
								}
							}
						}
					}
				}
				JOINT RightCollar
				{
					OFFSET 0 0 0
					CHANNELS 3 Zrotation Yrotation Xrotation
					JOINT RightShoulder
					{
						OFFSET -3.63819 0.83094 -0.13694
CHANNELS 3 Zrotation Xrotation Yrotation
						JOINT RightElbow
						{
OFFSET 0 -5.239800 -0.000000
CHANNELS 3 Zrotation Xrotation Yrotation
							JOINT RightWrist
							{
OFFSET 0 -3.480420 -0.000000
CHANNELS 3 Zrotation Xrotation Yrotation
								JOINT rhand
								{
									OFFSET 0 0 0
CHANNELS 3 Zrotation Xrotation Yrotation
									JOINT RFingers
									{
OFFSET 0 -0.618710 0.000000
CHANNELS 3 Zrotation Xrotation Yrotation
										End Site
										{
OFFSET 0 -0.498820 0.000000
										}
									}
								}
								JOINT RThumb
								{
OFFSET 0 0.000000 0.000000
CHANNELS 3 Zrotation Xrotation Yrotation
									End Site
									{
OFFSET 0 -0.506440 0.506440
									}
								}
							}
						}
					}
				}
			}
		}
	}
}
MOTION
Frames: 7
Frame Time: 0.008333333333333333
-10.729498 14.235792 -4.535795 -179.712022 83.409528 -169.111833 0.000000 0.000000 0.000000 -9.141270 -12.678609 -72.884251 17.642392 19.862509 83.090785 0.488012 -4.633161 -12.430574 0.811339 -5.747860 -16.054677 0.000000 0.000000 0.000000 18.743055 14.044051 -58.885651 -17.018688 -19.785472 81.253217 -3.409472 -2.392987 -35.848519 -0.022242 -0.962632 2.645981 2.608431 -2.861900 39.349304 -0.368910 -1.323152 8.432062 -1.294575 -0.134849 -9.815724 1.274379 -1.095075 -5.742585 2.651241 -0.964055 -11.550827 0.629674 -0.448171 -2.678558 0.000000 0.000000 0.000000 9.955856 -6.218928 -33.621640 25.907265 -37.116987 8.831662 18.156014 -20.435565 -10.919569 0.000000 0.000000 0.000000 -7.125000 0.000000 0.000000 -7.951055 41.325832 -0.725719 0.000000 0.000000 0.000000 -6.328079 -9.027258 32.711825 -25.543318 -36.754173 -8.612919 -21.004436 -2.293789 9.153470 0.000000 0.000000 0.000000 7.125000 0.000000 0.000000 5.183914 39.721228 0.676573
-10.506224 14.225293 -4.511273 -179.295943 83.338210 -168.742888 0.000000 0.000000 0.000000 -10.121657 -12.924143 -73.298556 16.131604 19.633584 78.621344 0.562981 -3.852654 -13.386572 0.847226 -5.870638 -16.409486 0.000000 0.000000 0.000000 19.291784 13.666624 -58.079491 -17.181450 -19.808401 81.733808 -3.574686 -2.007577 -36.553473 -0.013993 -0.761449 2.092693 2.589756 -2.842058 39.363599 -0.365029 -1.303533 8.432509 -1.288811 -0.125080 -9.818857 1.278332 -1.089709 -5.737084 2.689372 -0.956382 -11.500994 0.640809 -0.445536 -2.662689 0.000000 0.000000 0.000000 9.918909 -6.056696 -33.599496 25.782350 -36.992948 8.756337 18.156444 -20.326461 -10.939903 0.000000 0.000000 0.000000 -7.125000 0.000000 0.000000 -7.954454 41.346976 -0.721804 0.000000 0.000000 0.000000 -6.291370 -8.992712 32.735654 -25.543657 -36.754457 -8.613147 -20.991095 -2.316132 9.139913 0.000000 0.000000 0.000000 7.125000 0.000000 0.000000 5.193634 39.705781 0.679802
-10.283418 14.217161 -4.490713 -178.677467 83.259043 -168.119167 0.000000 0.000000 0.000000 -11.138154 -13.092627 -73.535326 14.587080 19.279433 73.987203 0.624985 -3.098188 -14.201497 0.882707 -5.989141 -16.752975 0.000000 0.000000 0.000000 19.831056 13.261668 -57.314666 -17.325205 -19.827593 82.157730 -3.728910 -1.586187 -37.181317 -0.006643 -0.523177 1.437749 2.610346 -2.837476 39.297355 -0.353767 -1.292867 8.429746 -1.292454 -0.121555 -9.799863 1.295314 -1.086006 -5.725255 2.710333 -0.951279 -11.476777 0.644509 -0.444367 -2.656591 0.000000 0.000000 0.000000 9.873912 -5.891063 -33.556736 25.642486 -36.853465 8.672332 18.124205 -20.242722 -10.976657 0.000000 0.000000 0.000000 -7.125000 0.000000 0.000000 -7.989501 41.382087 -0.718067 0.000000 0.000000 0.000000 -6.247751 -8.959541 32.733591 -25.529083 -36.739862 -8.604434 -20.962070 -2.363270 9.154889 0.000000 0.000000 0.000000 7.125000 0.000000 0.000000 5.220849 39.719298 0.681639
-10.059897 14.207061 -4.475848 -177.800357 83.216036 -167.182322 0.000000 0.000000 0.000000 -12.162203 -13.176414 -73.634446 13.063364 18.803265 69.320514 0.675446 -2.406415 -14.892730 0.919365 -6.109015 -17.100939 0.000000 0.000000 0.000000 20.364160 12.846559 -56.618298 -17.463952 -19.845081 82.566651 -3.871210 -1.153917 -37.740579 -0.001864 -0.279638 0.768342 2.660605 -2.830674 39.144933 -0.340500 -1.274922 8.427161 -1.312998 -0.116626 -9.752192 1.319955 -1.078261 -5.723484 2.718591 -0.941438 -11.461399 0.642836 -0.440513 -2.651926 0.000000 0.000000 0.000000 9.823302 -5.720918 -33.509641 25.500828 -36.711489 8.587552 18.082322 -20.171824 -11.045928 0.000000 0.000000 0.000000 -7.125000 0.000000 0.000000 -8.039201 41.449899 -0.709109 0.000000 0.000000 0.000000 -6.202476 -8.930867 32.722696 -25.495767 -36.706447 -8.584480 -20.997264 -2.417731 9.082951 0.000000 0.000000 0.000000 7.125000 0.000000 0.000000 5.180672 39.645805 0.685768
-9.835982 14.193443 -4.466872 -176.711018 83.240074 -165.984175 0.000000 0.000000 0.000000 -13.146179 -13.190582 -73.636398 11.615257 18.222878 64.763549 0.717211 -1.833805 -15.480194 0.943487 -6.186521 -17.326422 0.000000 0.000000 0.000000 20.879153 12.440721 -55.996197 -17.607088 -19.862135 82.988042 -3.996330 -0.720144 -38.212061 -0.000011 -0.037162 0.102086 2.714793 -2.804412 38.931467 -0.330286 -1.238800 8.417914 -1.346747 -0.105329 -9.691101 1.332988 -1.064545 -5.733399 2.736618 -0.922896 -11.436948 0.645965 -0.431992 -2.642101 0.000000 0.000000 0.000000 9.765493 -5.546086 -33.458134 25.355156 -36.564867 8.500569 18.045167 -20.110984 -11.122373 0.000000 0.000000 0.000000 -7.125000 0.000000 0.000000 -8.086141 41.525484 -0.698103 0.000000 0.000000 0.000000 -6.158811 -8.896442 32.716331 -25.459032 -36.669434 -8.562498 -21.093624 -2.479815 8.913142 0.000000 0.000000 0.000000 7.125000 0.000000 0.000000 5.074872 39.473169 0.693323
-9.611880 14.177895 -4.463260 -175.594466 83.325415 -164.738681 0.000000 0.000000 0.000000 -14.042685 -13.187414 -73.532762 10.297843 17.572078 60.476952 0.754109 -1.398613 -15.991574 0.955119 -6.223436 -17.434010 0.000000 0.000000 0.000000 21.353079 12.030282 -55.418667 -17.762647 -19.879531 83.445910 -4.100822 -0.269867 -38.578693 -0.001153 0.216535 -0.594934 2.743877 -2.755973 38.706906 -0.322794 -1.188586 8.400176 -1.375937 -0.088349 -9.634446 1.313390 -1.049762 -5.747078 2.779194 -0.900596 -11.400425 0.662411 -0.420761 -2.627389 0.000000 0.000000 0.000000 9.694595 -5.386058 -33.396267 25.192767 -36.400327 8.404005 18.000112 -20.066671 -11.186533 0.000000 0.000000 0.000000 -7.125000 0.000000 0.000000 -8.137841 41.587694 -0.690054 0.000000 0.000000 0.000000 -6.119884 -8.864983 32.692851 -25.419292 -36.629505 -8.538876 -21.085414 -2.476611 8.870905 0.000000 0.000000 0.000000 7.125000 0.000000 0.000000 5.076414 39.427645 0.699199
-9.385397 14.154401 -4.465178 -174.531309 83.462626 -163.555487 0.000000 0.000000 0.000000 -14.805909 -13.195444 -73.364279 9.160349 16.907367 56.639427 0.787070 -1.079639 -16.432169 0.961501 -6.243553 -17.492760 0.000000 0.000000 0.000000 21.759197 11.626088 -54.887755 -17.954850 -19.899340 84.010840 -4.185128 0.199318 -38.845586 -0.006605 0.519594 -1.427778 2.746372 -2.690530 38.503849 -0.320099 -1.127258 8.380763 -1.400566 -0.065909 -9.585869 1.268444 -1.042548 -5.754651 2.830880 -0.887320 -11.363002 0.686115 -0.413497 -2.613192 0.000000 0.000000 0.000000 9.621078 -5.259449 -33.348526 25.009200 -36.213323 8.295351 17.950296 -20.039411 -11.240316 0.000000 0.000000 0.000000 -7.125000 0.000000 0.000000 -8.191858 41.638664 -0.684345 0.000000 0.000000 0.000000 -6.083877 -8.847168 32.636381 -25.368687 -36.578462 -8.508677 -20.962762 -2.382251 8.979867 0.000000 0.000000 0.000000 7.125000 0.000000 0.000000 5.196989 39.533616 0.702301
